REM DIRINDEX 1\5,1\2\6,1\2\7,1\3\8,1\3\9,1\4\10,1\4\11,1\4\12
REM DIRNAME cjc026,folder01,folder02,folder03,folder04,folder05,folder06,folder07,folder08,folder09,folder10,folder11
TITLE ""
FILE "EJE_DB3000_5th_5C_04.mp3" MP3
  TRACK 01 AUDIO
    TITLE "0:"
    INDEX 01 00:00:00
  TRACK 02 AUDIO
    TITLE "10:cjc026_10242"
    INDEX 01 00:00:08
  TRACK 03 AUDIO
    TITLE "0:"
    INDEX 01 00:01:24
  TRACK 04 AUDIO
    TITLE "11:cjc026_10243"
    INDEX 01 00:01:62
  TRACK 05 AUDIO
    TITLE "0:"
    INDEX 01 00:03:45
  TRACK 06 AUDIO
    TITLE "12:cjc026_10244"
    INDEX 01 00:04:05
  TRACK 07 AUDIO
    TITLE "0:"
    INDEX 01 00:05:21
  TRACK 08 AUDIO
    TITLE "10:cjc026_10245"
    INDEX 01 00:05:57
  TRACK 09 AUDIO
    TITLE "0:"
    INDEX 01 00:06:71
  TRACK 10 AUDIO
    TITLE "11:cjc026_10246"
    INDEX 01 00:07:31
  TRACK 11 AUDIO
    TITLE "0:"
    INDEX 01 00:09:02
  TRACK 12 AUDIO
    TITLE "12:cjc026_10247"
    INDEX 01 00:09:37
  TRACK 13 AUDIO
    TITLE "0:"
    INDEX 01 00:10:49
  TRACK 14 AUDIO
    TITLE "10:cjc026_10248"
    INDEX 01 00:11:09
  TRACK 15 AUDIO
    TITLE "0:"
    INDEX 01 00:12:31
  TRACK 16 AUDIO
    TITLE "11:cjc026_10249"
    INDEX 01 00:12:69
  TRACK 17 AUDIO
    TITLE "0:"
    INDEX 01 00:14:40
  TRACK 18 AUDIO
    TITLE "12:cjc026_10250"
    INDEX 01 00:15:03
  TRACK 19 AUDIO
    TITLE "0:"
    INDEX 01 00:16:23
  TRACK 20 AUDIO
    TITLE "10:cjc026_10251"
    INDEX 01 00:16:60
  TRACK 21 AUDIO
    TITLE "0:"
    INDEX 01 00:18:10
  TRACK 22 AUDIO
    TITLE "11:cjc026_10252"
    INDEX 01 00:18:48
  TRACK 23 AUDIO
    TITLE "0:"
    INDEX 01 00:20:12
  TRACK 24 AUDIO
    TITLE "12:cjc026_10253"
    INDEX 01 00:20:49
  TRACK 25 AUDIO
    TITLE "0:"
    INDEX 01 00:21:74
  TRACK 26 AUDIO
    TITLE "10:cjc026_10254"
    INDEX 01 00:22:37
  TRACK 27 AUDIO
    TITLE "0:"
    INDEX 01 00:23:57
  TRACK 28 AUDIO
    TITLE "11:cjc026_10255"
    INDEX 01 00:24:19
  TRACK 29 AUDIO
    TITLE "0:"
    INDEX 01 00:25:42
  TRACK 30 AUDIO
    TITLE "12:cjc026_10256"
    INDEX 01 00:26:04
  TRACK 31 AUDIO
    TITLE "0:"
    INDEX 01 00:27:24
  TRACK 32 AUDIO
    TITLE "10:cjc026_10257"
    INDEX 01 00:27:59
  TRACK 33 AUDIO
    TITLE "0:"
    INDEX 01 00:28:73
  TRACK 34 AUDIO
    TITLE "11:cjc026_10258"
    INDEX 01 00:29:36
  TRACK 35 AUDIO
    TITLE "0:"
    INDEX 01 00:31:13
  TRACK 36 AUDIO
    TITLE "12:cjc026_10259"
    INDEX 01 00:31:48
  TRACK 37 AUDIO
    TITLE "0:"
    INDEX 01 00:32:62
  TRACK 38 AUDIO
    TITLE "10:cjc026_10260"
    INDEX 01 00:33:25
  TRACK 39 AUDIO
    TITLE "0:"
    INDEX 01 00:34:42
  TRACK 40 AUDIO
    TITLE "11:cjc026_10261"
    INDEX 01 00:35:04
  TRACK 41 AUDIO
    TITLE "0:"
    INDEX 01 00:36:59
  TRACK 42 AUDIO
    TITLE "12:cjc026_10262"
    INDEX 01 00:37:19
  TRACK 43 AUDIO
    TITLE "0:"
    INDEX 01 00:38:39
  TRACK 44 AUDIO
    TITLE "10:cjc026_10263"
    INDEX 01 00:38:74
  TRACK 45 AUDIO
    TITLE "0:"
    INDEX 01 00:40:18
  TRACK 46 AUDIO
    TITLE "11:cjc026_10264"
    INDEX 01 00:40:53
  TRACK 47 AUDIO
    TITLE "0:"
    INDEX 01 00:41:67
  TRACK 48 AUDIO
    TITLE "12:cjc026_10265"
    INDEX 01 00:42:27
  TRACK 49 AUDIO
    TITLE "0:"
    INDEX 01 00:43:47
  TRACK 50 AUDIO
    TITLE "10:cjc026_10266"
    INDEX 01 00:44:10
  TRACK 51 AUDIO
    TITLE "0:"
    INDEX 01 00:45:21
  TRACK 52 AUDIO
    TITLE "11:cjc026_10267"
    INDEX 01 00:45:56
  TRACK 53 AUDIO
    TITLE "0:"
    INDEX 01 00:47:17
  TRACK 54 AUDIO
    TITLE "12:cjc026_10268"
    INDEX 01 00:47:52
  TRACK 55 AUDIO
    TITLE "0:"
    INDEX 01 00:48:66
  TRACK 56 AUDIO
    TITLE "10:cjc026_10269"
    INDEX 01 00:49:26
  TRACK 57 AUDIO
    TITLE "0:"
    INDEX 01 00:50:46
  TRACK 58 AUDIO
    TITLE "11:cjc026_10270"
    INDEX 01 00:51:09
  TRACK 59 AUDIO
    TITLE "0:"
    INDEX 01 00:52:17
  TRACK 60 AUDIO
    TITLE "12:cjc026_10271"
    INDEX 01 00:52:52
  TRACK 61 AUDIO
    TITLE "0:"
    INDEX 01 00:53:72
  TRACK 62 AUDIO
    TITLE "10:cjc026_10272"
    INDEX 01 00:54:37
  TRACK 63 AUDIO
    TITLE "0:"
    INDEX 01 00:55:51
  TRACK 64 AUDIO
    TITLE "11:cjc026_10273"
    INDEX 01 00:56:14
  TRACK 65 AUDIO
    TITLE "0:"
    INDEX 01 00:57:45
  TRACK 66 AUDIO
    TITLE "12:cjc026_10274"
    INDEX 01 00:58:07
  TRACK 67 AUDIO
    TITLE "0:"
    INDEX 01 00:59:21
  TRACK 68 AUDIO
    TITLE "10:cjc026_10275"
    INDEX 01 00:59:59
  TRACK 69 AUDIO
    TITLE "0:"
    INDEX 01 01:01:06
  TRACK 70 AUDIO
    TITLE "11:cjc026_10276"
    INDEX 01 01:01:44
  TRACK 71 AUDIO
    TITLE "0:"
    INDEX 01 01:02:64
  TRACK 72 AUDIO
    TITLE "12:cjc026_10277"
    INDEX 01 01:03:24
  TRACK 73 AUDIO
    TITLE "0:"
    INDEX 01 01:04:49
  TRACK 74 AUDIO
    TITLE "10:cjc026_10278"
    INDEX 01 01:05:09
  TRACK 75 AUDIO
    TITLE "0:"
    INDEX 01 01:06:50
  TRACK 76 AUDIO
    TITLE "11:cjc026_10279"
    INDEX 01 01:07:07
  TRACK 77 AUDIO
    TITLE "0:"
    INDEX 01 01:08:59
  TRACK 78 AUDIO
    TITLE "12:cjc026_10280"
    INDEX 01 01:09:17
  TRACK 79 AUDIO
    TITLE "0:"
    INDEX 01 01:10:55
